<?xml version="1.0" encoding="UTF-8" standalone="no"?>
<!-- Created with Inkscape (http://www.inkscape.org/) -->

<svg
   width="1000.0001"
   height="727.16504"
   viewBox="0 0 264.58335 192.39575"
   version="1.1"
   id="svg1"
   inkscape:version="1.4.3 (unknown)"
   sodipodi:docname="logo.svg"
   xmlns:inkscape="http://www.inkscape.org/namespaces/inkscape"
   xmlns:sodipodi="http://sodipodi.sourceforge.net/DTD/sodipodi-0.dtd"
   xmlns="http://www.w3.org/2000/svg"
   xmlns:svg="http://www.w3.org/2000/svg">
  <sodipodi:namedview
     id="namedview1"
     pagecolor="#ffffff"
     bordercolor="#000000"
     borderopacity="0.25"
     inkscape:showpageshadow="2"
     inkscape:pageopacity="0.0"
     inkscape:pagecheckerboard="0"
     inkscape:deskcolor="#d1d1d1"
     inkscape:document-units="px"
     showguides="false"
     inkscape:zoom="1.1592967"
     inkscape:cx="499.87205"
     inkscape:cy="363.58252"
     inkscape:window-width="1920"
     inkscape:window-height="1052"
     inkscape:window-x="0"
     inkscape:window-y="0"
     inkscape:window-maximized="1"
     inkscape:current-layer="layer1"
     showgrid="false">
    <sodipodi:guide
       position="7.1159323,244.9314"
       orientation="0,-1"
       id="guide2"
       inkscape:locked="false" />
    <sodipodi:guide
       position="-5.5806825,232.49775"
       orientation="1,0"
       id="guide3"
       inkscape:locked="false" />
    <sodipodi:guide
       position="77.369107,126.28525"
       orientation="0,-1"
       id="guide4"
       inkscape:locked="false" />
    <sodipodi:guide
       position="8.6106722,240.22056"
       orientation="0,-1"
       id="guide5"
       inkscape:locked="false" />
    <sodipodi:guide
       position="10.10541,226.2074"
       orientation="0,-1"
       id="guide6"
       inkscape:locked="false" />
    <sodipodi:guide
       position="6.7422483,221.41178"
       orientation="0,-1"
       id="guide7"
       inkscape:locked="false" />
    <sodipodi:guide
       position="23.667045,205.3122"
       orientation="0,-1"
       id="guide8"
       inkscape:locked="false" />
    <sodipodi:guide
       position="21.915398,242.99206"
       orientation="1,0"
       id="guide9"
       inkscape:locked="false" />
    <sodipodi:guide
       position="0.04404043,232.53415"
       orientation="1,0"
       id="guide10"
       inkscape:locked="false" />
  </sodipodi:namedview>
  <defs
     id="defs1" />
  <g
     inkscape:label="Layer 1"
     inkscape:groupmode="layer"
     id="layer1"
     transform="translate(-33.117435,-134.54706)">
    <rect
       style="fill:#333333;stroke:none;stroke-width:1.14086"
       id="rect1"
       width="264.58334"
       height="192.39575"
       x="33.117435"
       y="134.54706"
       rx="14.848545"
       ry="14.848545" />
    <g
       id="g1"
       transform="translate(-1.9942168,4.051824)">
      <path
         id="rect10"
         style="fill:#00ff00;stroke:none;stroke-width:0.808268"
         d="m 47.688437,196.60573 c -1.07563,0 -1.941739,0.8661 -1.941739,1.94175 v 8.10897 39.55699 8.32605 44.86781 8.3721 c 0,1.07564 0.866109,1.94175 1.941739,1.94175 h 10.434857 0.005 55.673636 c 1.07563,0 1.94174,-0.86611 1.94174,-1.94175 v -8.3721 c 0,-1.07562 -0.86611,-1.94173 -1.94174,-1.94173 H 60.064684 v -40.98435 h 53.737166 c 1.07563,0 1.94174,-0.86611 1.94174,-1.94173 v -8.32605 c 0,-1.07564 -0.86611,-1.94175 -1.94174,-1.94175 H 60.064684 v -35.67348 h 53.737166 c 1.07563,0 1.94174,-0.86611 1.94174,-1.94176 v -8.10897 c 0,-1.07565 -0.86611,-1.94175 -1.94174,-1.94175 z" />
      <path
         id="path13"
         style="fill:#00ff00;stroke:none;stroke-width:0.808268"
         d="m 187.87972,256.48123 c 1.07565,0 1.94175,-0.86611 1.94175,-1.94175 v -8.10898 -39.55699 -8.32605 -44.86779 -8.3721 c 0,-1.07565 -0.8661,-1.94176 -1.94175,-1.94176 h -10.43485 -0.005 -55.67367 c -1.07563,0 -1.94174,0.86611 -1.94174,1.94176 v 8.3721 c 0,1.07562 0.86611,1.94173 1.94174,1.94173 h 53.73703 v 40.98433 h -53.7372 c -1.07563,0 -1.94174,0.86611 -1.94174,1.94173 v 8.32605 c 0,1.07565 0.86611,1.94175 1.94174,1.94175 h 53.7372 v 35.67349 h -53.7372 c -1.07563,0 -1.94174,0.8661 -1.94174,1.94175 v 8.10898 c 0,1.07564 0.86611,1.94175 1.94174,1.94175 z" />
      <path
         id="path14"
         style="fill:#00ff00;stroke:none;stroke-width:0.808268"
         d="m 195.13221,196.60573 c -1.07563,0 -1.94148,0.86584 -1.94148,1.94148 v 8.10907 c 0,1.07564 0.86585,1.942 1.94148,1.942 h 38.58369 v 37.61527 8.32611 44.86754 8.3721 c 0,1.07564 0.86586,1.942 1.94149,1.942 h 0.4253 10e-4 c 0.002,5.4e-4 0.006,5.2e-4 0.008,5.2e-4 7.5e-4,-6e-5 0.002,5.3e-4 0.003,5.2e-4 h 5.2e-4 5.1e-4 v -5.2e-4 l 0.001,-5.2e-4 h 0.008 0.13591 9.85728 0.44183 0.13591 0.008 l 0.001,5.2e-4 5.1e-4,5.2e-4 h 5.2e-4 c 9.9e-4,1e-5 0.002,-5.8e-4 0.003,-5.2e-4 0.002,0 0.006,2e-5 0.008,-5.2e-4 h 0.001 0.42478 c 1.07563,0 1.94148,-0.86636 1.94148,-1.942 v -8.3721 -44.86754 -8.32611 -37.61527 h 38.5837 c 1.07562,0 1.94148,-0.86636 1.94148,-1.942 v -8.10907 c 0,-1.07564 -0.86586,-1.94148 -1.94148,-1.94148 h -40.52518 -0.58239 -10.30015 -0.58188 z" />
    </g>
  </g>
</svg>
